<?xml version="1.0" encoding="UTF-8"?><svg id="Layer_2" xmlns="http://www.w3.org/2000/svg" width="251.5791mm" height="103.335mm" viewBox="0 0 713.1377 292.9182"><defs><style>.cls-1{fill:#cfdef2;}.cls-1,.cls-2{stroke-width:0px;}.cls-2{fill:#fff;}</style></defs><g id="Layer_1-2"><path class="cls-2" d="m20.9595,83.0608H0v-23.2875h20.9595v-13.7143C20.9595,15.7844,39.8478,0,68.0525,0c9.0562,0,17.5954,1.5531,26.3925,4.3991l-6.2101,30.0156c-6.2101-2.07-12.6782-3.3641-18.8884-3.3641-9.5742,0-12.4203,4.6581-12.4203,15.2663v13.4563h27.4276v23.2875h-27.4276v108.6773H20.9595v-108.6773Z"/><path class="cls-2" d="m193.0311,179.8359c-9.0562,9.5732-21.2174,15.2663-36.4848,15.2663-38.5538,0-61.3243-34.4148-61.3243-69.6055,0-35.7088,23.8045-69.0875,61.3243-69.0875,14.2313,0,25.8756,5.1751,34.9317,13.7143v-10.3502l35.9678,2.587v129.3778h-32.0857l-2.3291-11.9022Zm1.035-54.3392c0-22.5115-13.7143-38.0368-32.6027-38.0368-19.6665,0-28.9806,18.3714-28.9806,38.0368,0,18.6304,8.5381,38.5548,28.9806,38.5548,17.0773,0,32.6027-13.9733,32.6027-38.5548Z"/><path class="cls-2" d="m366.6611,185.787c-15.2674,7.2452-30.0167,9.3152-45.025,9.3152-43.9869,0-71.1565-32.0857-71.1565-69.3465,0-37.5198,26.6516-69.3465,71.1565-69.3465,15.5264,0,30.2757,3.6221,45.541,10.3502l-9.8322,28.2046c-11.6432-4.3991-23.0295-7.5042-34.9317-7.5042-21.9934,0-34.6727,17.3364-34.6727,38.2958s12.6793,38.2958,34.6727,38.2958c11.9022,0,23.2885-3.1051,34.9317-8.0222l9.3163,29.7577Z"/><path class="cls-1" d="m393.5717,83.0608h-16.8194v-23.2875h16.8194v-28.7227l35.9678-6.7271v35.4498h28.9806v23.2875h-28.9806v65.7244c0,10.6082,2.8471,15.2663,12.4203,15.2663,6.2101,0,12.6793-1.294,18.8894-3.3641l6.2101,30.0156c-8.7982,2.846-17.3374,4.3991-26.3925,4.3991-28.2057,0-47.0951-13.4553-47.0951-43.73v-68.3115Z"/><path class="cls-2" d="m478.7026,125.7557c0-37.0018,27.6855-69.3465,68.8274-69.3465s68.8295,32.3447,68.8295,69.3465-26.9106,69.3465-68.8295,69.3465-68.8274-32.3447-68.8274-69.3465Zm100.3961,0c0-23.8055-15.5243-38.2958-31.5687-38.2958s-31.5666,14.4903-31.5666,38.2958c0,23.5465,15.0062,38.2958,31.5666,38.2958s31.5687-14.7493,31.5687-38.2958Z"/><path class="cls-2" d="m639.3932,62.3604l31.0507-2.587,3.3651,16.0423c8.2802-12.1612,20.9574-19.4064,39.3287-19.4064v31.0507c-25.6155,0-37.7767,18.3714-37.7767,48.646v55.6322h-35.9678V62.3604Z"/><path class="cls-1" d="m324.2652,258.5045c39.0739,0,88.496-14.7493,131.4489-44.766v34.4158c-36.2268,25.8745-82.5428,44.7639-131.4489,44.7639s-95.2221-18.8894-131.4468-44.7639v-34.4158c42.9529,30.0167,92.375,44.766,131.4468,44.766Z"/><path class="cls-1" d="m208.6002,1.1219c10.6071,0,21.2164,8.2802,21.2164,20.1835,0,11.6443-9.8322,20.7004-21.2164,20.7004-11.9043,0-20.7004-9.0562-20.7004-20.7004,0-11.9033,9.8322-20.1835,20.7004-20.1835Z"/><path class="cls-1" d="m227.4459,62.3581v129.3831h-32.087l-2.3289-11.9033-.5821-41.4241c1.0566-3.9031,1.6173-8.2158,1.6173-12.9169,0-5.089-.6901-9.8115-2.0054-14.0811l-.5823-41.2948v-10.3506l35.9685,2.5877Z"/></g></svg>